<svg viewBox="0 0 16 16" xmlns="http://www.w3.org/2000/svg" aria-hidden="true" focusable="false">
  <path d="M8 1C4.13 1 1 4.13 1 8c0 3.09 2 5.71 4.79 6.64.35.06.48-.15.48-.34v-1.21c-1.95.42-2.36-.94-2.36-.94-.32-.81-.78-1.03-.78-1.03-.64-.43.05-.42.05-.42.7.05 1.07.72 1.07.72.62 1.07 1.63.76 2.03.58.06-.45.24-.76.44-.93-1.56-.18-3.19-.78-3.19-3.46 0-.76.27-1.39.72-1.88-.07-.18-.31-.89.07-1.85 0 0 .59-.19 1.92.72A6.7 6.7 0 018 4.77a6.7 6.7 0 011.75.24c1.33-.91 1.92-.72 1.92-.72.38.96.14 1.67.07 1.85.45.49.72 1.12.72 1.88 0 2.69-1.64 3.28-3.2 3.45.25.22.48.65.48 1.31v1.94c0 .19.13.41.49.34A7.003 7.003 0 0015 8c0-3.87-3.13-7-7-7z" stroke="currentColor" stroke-width="0.5" fill="currentColor"/>
</svg>
